<?xml version="1.0" standalone="no"?>
<!DOCTYPE svg PUBLIC "-//W3C//DTD SVG 20010904//EN"
 "http://www.w3.org/TR/2001/REC-SVG-20010904/DTD/svg10.dtd">
<svg version="1.0" xmlns="http://www.w3.org/2000/svg"
 width="578.000000pt" height="578.000000pt" viewBox="0 0 578.000000 578.000000"
 preserveAspectRatio="xMidYMid meet">

<g transform="translate(0.000000,577.000000) scale(0.100000,-0.100000)"
fill="#FF0000" stroke="none">
<path d="M517 5252 l-517 -517 0 -1850 0 -1850 513 -513 512 -512 1855 0 1855
0 513 513 512 512 0 1850 0 1850 -518 518 -517 517 -1845 0 -1845 0 -518 -518z
m4715 -9 l508 -508 0 -1845 0 -1845 -507 -507 -508 -508 -1845 0 -1845 0 -508
508 -507 507 0 1845 0 1845 507 507 508 508 1845 0 1845 0 507 -507z"/>

<path d="M1285 5603 c-66 -17 -113 -96 -95 -161 19 -69 62 -102 132 -102 140
0 182 193 55 251 -43 19 -56 21 -92 12z"/>
<circle cx="1320" cy="5473" r="120" fill="black"/> <!-- 135 dia, 132 px from left -->

<path d="M4402 5603 c-35 -7 -89 -66 -96 -108 -5 -27 -2 -47 14 -81 26 -53 62
-74 126 -74 41 0 51 5 85 39 34 34 39 44 39 85 0 64 -21 100 -73 125 -43 21
-52 22 -95 14z"/>
<circle cx="4440" cy="5473" r="120" fill="black"/> <!-- 134px from right -->

<circle cx="2880" cy="3678" r="140" fill="white"/>

</g>
</svg>